<?xml version="1.0" encoding="UTF-8" standalone="no"?>
<!-- Created with Inkscape (http://www.inkscape.org/) -->

<svg
   width="107.16591mm"
   height="28.932405mm"
   viewBox="0 0 107.16591 28.932405"
   version="1.1"
   id="svg1"
   inkscape:version="1.4.2 (ebf0e940d0, 2025-05-08)"
   sodipodi:docname="logo.svg"
   xmlns:inkscape="http://www.inkscape.org/namespaces/inkscape"
   xmlns:sodipodi="http://sodipodi.sourceforge.net/DTD/sodipodi-0.dtd"
   xmlns="http://www.w3.org/2000/svg"
   xmlns:svg="http://www.w3.org/2000/svg">
  <sodipodi:namedview
     id="namedview1"
     pagecolor="#ffffff"
     bordercolor="#000000"
     borderopacity="0.25"
     inkscape:showpageshadow="2"
     inkscape:pageopacity="0.0"
     inkscape:pagecheckerboard="0"
     inkscape:deskcolor="#d1d1d1"
     inkscape:document-units="mm"
     inkscape:zoom="0.89619809"
     inkscape:cx="354.27435"
     inkscape:cy="531.69049"
     inkscape:window-width="2560"
     inkscape:window-height="1413"
     inkscape:window-x="0"
     inkscape:window-y="0"
     inkscape:window-maximized="1"
     inkscape:current-layer="text1" />
  <defs
     id="defs1" />
  <g
     inkscape:label="Layer 1"
     inkscape:groupmode="layer"
     id="layer1"
     transform="translate(-11.218685,-7.6759491)">
    <rect
       style="opacity:1;fill:#000000;fill-opacity:1;stroke-width:2.4;stroke-linecap:round;paint-order:stroke fill markers"
       id="rect2"
       width="44.28429"
       height="28.932405"
       x="11.218685"
       y="7.6759491" />
    <g
       id="text1"
       style="font-style:italic;font-weight:bold;font-size:22.5778px;font-family:'Nimbus Roman';-inkscape-font-specification:'Nimbus Roman, Bold Italic';text-align:center;letter-spacing:-0.333756px;word-spacing:0px;text-anchor:middle;fill:#f9f9f9;stroke-width:2.4;stroke-linecap:round;paint-order:stroke fill markers"
       aria-label="Tim Cloud">
      <path
         style="font-family:sans-serif;-inkscape-font-specification:'sans-serif, Bold Italic'"
         d="m 17.422539,30.999016 2.77707,-13.253169 h -3.860804 l 0.632178,-2.867381 h 11.153434 l -0.632179,2.867381 H 23.631434 L 20.854365,30.999016 Z M 31.425677,17.158824 q -0.745067,0 -1.241779,-0.316089 -0.474134,-0.338667 -0.474134,-1.061157 0,-0.903112 0.541868,-1.422401 0.541867,-0.541868 1.512712,-0.541868 0.72249,0 1.196624,0.31609 0.474134,0.316089 0.474134,1.038578 0,0.903113 -0.541868,1.44498 -0.519289,0.541867 -1.467557,0.541867 z m -4.831649,13.840192 2.596447,-12.327479 h 3.409248 L 29.95812,30.999016 Z m 6.417003,0 2.619025,-12.327479 h 2.528713 l -0.225778,2.280357 h 0.09031 q 0.72249,-1.106312 1.64818,-1.806224 0.948267,-0.699911 2.235202,-0.699911 1.264357,0 1.964269,0.677334 0.699912,0.654756 0.92569,1.828801 h 0.09031 q 0.699912,-1.106312 1.670757,-1.806224 0.970846,-0.699911 2.25778,-0.699911 1.535291,0 2.302936,0.970845 0.767645,0.948268 0.767645,2.573869 0,0.812801 -0.248356,1.986847 l -1.467557,7.021696 h -3.318937 l 1.512713,-7.202319 q 0.180623,-0.790223 0.180623,-1.309512 0,-1.354668 -1.083735,-1.354668 -0.745067,0 -1.354668,0.632178 -0.609601,0.632179 -1.061157,1.715913 -0.451556,1.061157 -0.722489,2.393247 l -1.061157,5.125161 h -3.318937 l 1.512713,-7.202319 q 0.180623,-0.790223 0.180623,-1.309512 0,-1.354668 -1.083735,-1.354668 -0.745067,0 -1.354668,0.654756 -0.609601,0.632179 -1.061157,1.715913 -0.428978,1.083734 -0.722489,2.393247 l -1.083735,5.102583 z"
         id="path2" />
      <path
         style="font-family:sans-serif;-inkscape-font-specification:'sans-serif, Bold Italic';fill:#1a1a1a"
         d="m 65.442595,31.224794 q -2.889958,0 -4.380093,-1.693335 -1.490135,-1.715913 -1.490135,-4.538138 0,-1.444979 0.316089,-2.912536 0.338668,-1.490135 0.993424,-2.822226 0.677334,-1.33209 1.693335,-2.370669 1.016001,-1.038578 2.415824,-1.648179 1.399824,-0.609601 3.206048,-0.609601 1.422402,0 2.573869,0.338667 1.174046,0.316089 2.190047,0.903112 l -1.309512,2.709336 q -0.857957,-0.496711 -1.693335,-0.767645 -0.812801,-0.293511 -1.761069,-0.293511 -1.264357,0 -2.235202,0.632178 -0.948268,0.632179 -1.603024,1.693335 -0.632178,1.038579 -0.970845,2.348092 -0.31609,1.286934 -0.31609,2.641602 0,1.693335 0.790223,2.619025 0.790223,0.903112 2.212625,0.903112 0.970845,0 1.873957,-0.225778 0.92569,-0.225778 1.986847,-0.632178 v 2.844803 q -2.077158,0.880534 -4.492983,0.880534 z m 6.687959,-0.225778 3.657604,-17.159129 h 3.364092 l -3.635026,17.159129 z m 11.745361,0.225778 q -1.377246,0 -2.46098,-0.564445 -1.061157,-0.587023 -1.670758,-1.64818 -0.587022,-1.061156 -0.587022,-2.528713 0,-1.625602 0.4064,-3.070581 0.4064,-1.467557 1.219201,-2.57387 0.812801,-1.12889 2.032002,-1.761068 1.241779,-0.632178 2.889959,-0.632178 2.144891,0 3.409248,1.286934 1.264357,1.286935 1.264357,3.589871 0,1.557868 -0.383823,2.980269 -0.383823,1.422402 -1.196624,2.528714 -0.790223,1.106312 -2.032002,1.761068 -1.219201,0.632179 -2.889958,0.632179 z m 0.270934,-2.709336 q 0.925689,0 1.557868,-0.745068 0.654756,-0.745067 0.993423,-1.919113 0.338667,-1.196623 0.338667,-2.528713 0,-0.92569 -0.361245,-1.535291 -0.338667,-0.632178 -1.219201,-0.632178 -0.745067,0 -1.309512,0.519289 -0.564445,0.496712 -0.92569,1.309513 -0.361245,0.8128 -0.541868,1.73849 -0.180622,0.92569 -0.180622,1.761069 0,2.032002 1.64818,2.032002 z m 11.248639,2.709336 q -1.580446,0 -2.370669,-0.948268 -0.767646,-0.970845 -0.767646,-2.596447 0,-0.4064 0.06773,-1.038579 0.06773,-0.654756 0.2032,-1.309512 l 1.399824,-6.660451 h 3.318936 l -1.512712,7.202318 q -0.180623,0.790223 -0.180623,1.309512 0,1.354669 1.196624,1.354669 0.767645,0 1.354668,-0.632179 0.6096,-0.654756 1.061156,-1.738491 0.451556,-1.083734 0.72249,-2.393246 l 1.08373,-5.102583 h 3.31894 l -2.61902,12.327479 h -2.528717 l 0.225778,-2.280358 h -0.112889 q -0.699912,1.106312 -1.64818,1.806224 -0.92569,0.699912 -2.212624,0.699912 z m 13.416122,0 q -0.88053,0 -1.69333,-0.428978 -0.79022,-0.451556 -1.28694,-1.422402 -0.49671,-0.993423 -0.49671,-2.641603 0,-1.490134 0.4064,-2.957691 0.4064,-1.490135 1.15147,-2.686759 0.74507,-1.196623 1.78365,-1.919113 1.06115,-0.722489 2.37067,-0.722489 1.10631,0 1.73849,0.519289 0.63218,0.519289 1.06115,1.286935 h 0.0903 q 0,-0.06773 0.0226,-0.474134 0.0452,-0.428978 0.11289,-0.970846 0.0677,-0.564445 0.15805,-1.016001 l 0.83538,-3.951115 h 3.31893 l -3.63502,17.159129 h -2.52872 l 0.2032,-1.603024 h -0.0903 q -0.65475,0.812801 -1.49013,1.33209 -0.83538,0.496712 -2.03201,0.496712 z m 1.39983,-2.686758 q 0.79022,0 1.33209,-0.587023 0.56444,-0.609601 0.90311,-1.490135 0.36125,-0.903112 0.51929,-1.806224 0.18062,-0.92569 0.18062,-1.580446 0,-0.880534 -0.4064,-1.399824 -0.4064,-0.541867 -1.12889,-0.541867 -0.6096,0 -1.15147,0.496711 -0.51929,0.474134 -0.92569,1.264357 -0.38382,0.790223 -0.6096,1.761069 -0.22577,0.970845 -0.22577,1.941691 0,1.941691 1.51271,1.941691 z"
         id="path3" />
    </g>
  </g>
</svg>
