<?xml version="1.0" encoding="UTF-8" standalone="no"?>
<!-- Created with Inkscape (http://www.inkscape.org/) -->

<svg
   width="107.166mm"
   height="107.166mm"
   viewBox="0 0 107.166 107.166"
   version="1.1"
   id="svg1"
   inkscape:version="1.4.2 (ebf0e940d0, 2025-05-08)"
   sodipodi:docname="logo_icon.svg"
   xmlns:inkscape="http://www.inkscape.org/namespaces/inkscape"
   xmlns:sodipodi="http://sodipodi.sourceforge.net/DTD/sodipodi-0.dtd"
   xmlns="http://www.w3.org/2000/svg"
   xmlns:svg="http://www.w3.org/2000/svg">
  <sodipodi:namedview
     id="namedview1"
     pagecolor="#ffffff"
     bordercolor="#000000"
     borderopacity="0.25"
     inkscape:showpageshadow="2"
     inkscape:pageopacity="0.0"
     inkscape:pagecheckerboard="0"
     inkscape:deskcolor="#d1d1d1"
     inkscape:document-units="mm"
     inkscape:zoom="0.89619808"
     inkscape:cx="225.95451"
     inkscape:cy="76.433996"
     inkscape:window-width="2560"
     inkscape:window-height="1413"
     inkscape:window-x="0"
     inkscape:window-y="0"
     inkscape:window-maximized="1"
     inkscape:current-layer="layer1" />
  <defs
     id="defs1" />
  <g
     inkscape:label="Layer 1"
     inkscape:groupmode="layer"
     id="layer1"
     transform="translate(-11.218685,-7.6759491)">
    <rect
       style="fill:#1a1a1a;stroke-width:3.99589;stroke-linecap:round;paint-order:stroke fill markers"
       id="rect1"
       width="107.166"
       height="53.583"
       x="11.218685"
       y="7.6759491" />
    <rect
       style="fill:#ffffff;stroke-width:3.99589;stroke-linecap:round;paint-order:stroke fill markers"
       id="rect2"
       width="107.166"
       height="53.583"
       x="11.218684"
       y="61.258953" />
    <path
       style="font-style:italic;font-weight:bold;font-size:22.5778px;font-family:sans-serif;-inkscape-font-specification:'sans-serif, Bold Italic';text-align:center;letter-spacing:-0.333756px;word-spacing:0px;text-anchor:middle;fill:#f9f9f9;stroke-width:5.04472;stroke-linecap:round;paint-order:stroke fill markers"
       d="m 29.7201,52.525123 5.837304,-27.857698 h -8.115275 l 1.328816,-6.027134 h 23.444128 l -1.328818,6.027134 H 42.77098 L 36.933678,52.525123 Z M 59.154206,23.433524 q -1.566105,0 -2.610176,-0.664408 -0.996613,-0.711867 -0.996613,-2.230515 0,-1.89831 1.138987,-2.989837 1.138986,-1.138988 3.179668,-1.138988 1.518649,0 2.515262,0.66441 0.996613,0.664408 0.996613,2.183055 0,1.898312 -1.138988,3.037297 -1.091527,1.138986 -3.084753,1.138986 z M 48.998249,52.525123 54.45589,26.613193 h 7.16612 l -5.552557,25.91193 z m 13.488316,0 5.505098,-25.91193 h 5.315267 l -0.474578,4.793231 h 0.189829 q 1.518648,-2.325429 3.464416,-3.79662 1.993224,-1.471188 4.698317,-1.471188 2.657634,0 4.128824,1.423732 1.471191,1.376274 1.945768,3.844076 h 0.189829 q 1.47119,-2.325429 3.511873,-3.79662 2.040684,-1.471188 4.745774,-1.471188 3.227128,0 4.840688,2.040682 1.61357,1.993226 1.61357,5.410183 0,1.708479 -0.52204,4.176283 L 98.554447,52.525123 H 91.578158 L 94.757827,37.3861 q 0.379664,-1.661021 0.379664,-2.752548 0,-2.847465 -2.277974,-2.847465 -1.566104,0 -2.847464,1.328816 -1.28136,1.328818 -2.230515,3.606789 -0.949155,2.230515 -1.518647,5.030522 L 84.032376,52.525123 H 77.056087 L 80.235757,37.3861 q 0.379663,-1.661021 0.379663,-2.752548 0,-2.847465 -2.277973,-2.847465 -1.566105,0 -2.847465,1.376274 -1.28136,1.328819 -2.230515,3.606789 -0.901696,2.277971 -1.518646,5.030522 l -2.277973,10.725451 z"
       id="path2" />
    <path
       style="font-style:italic;font-weight:bold;font-size:22.5778px;font-family:sans-serif;-inkscape-font-specification:'sans-serif, Bold Italic';text-align:center;letter-spacing:-0.333756px;word-spacing:0px;text-anchor:middle;fill:#1a1a1a;stroke-width:3.81415;stroke-linecap:round;paint-order:stroke fill markers"
       d="m 27.397783,101.86475 q -4.592805,0 -6.96097,-2.691109 -2.368165,-2.726973 -2.368165,-7.212126 0,-2.296404 0.502338,-4.628691 0.538221,-2.368165 1.578778,-4.485162 1.076438,-2.116996 2.691096,-3.767535 1.614658,-1.650538 3.839297,-2.619334 2.22464,-0.968795 5.095143,-0.968795 2.260522,0 4.090467,0.538219 1.865827,0.502338 3.480485,1.435252 l -2.081114,4.305754 q -1.36349,-0.789387 -2.691096,-1.219963 -1.291727,-0.466456 -2.798742,-0.466456 -2.009352,0 -3.552247,1.004675 -1.507015,1.004677 -2.547572,2.691097 -1.004675,1.650539 -1.542894,3.731655 -0.50234,2.045226 -0.50234,4.198106 0,2.691105 1.255845,4.162238 1.255846,1.435248 3.516368,1.435248 1.542894,0 2.978146,-0.358816 1.471133,-0.358816 3.157554,-1.004679 v 4.521052 q -3.301079,1.39937 -7.140377,1.39937 z m 10.628696,-0.35882 5.812769,-27.269777 h 5.346311 l -5.776887,27.269777 z m 18.666064,0.35882 q -2.188759,0 -3.91106,-0.89704 -1.686421,-0.93291 -2.655216,-2.61934 -0.932913,-1.68641 -0.932913,-4.018698 0,-2.58345 0.645863,-4.879854 0.645862,-2.332282 1.937589,-4.090466 1.291727,-1.794064 3.229316,-2.79874 1.973471,-1.004675 4.592806,-1.004675 3.408722,0 5.418074,2.045232 2.009353,2.045234 2.009353,5.705126 0,2.475812 -0.609983,4.736331 -0.609983,2.260518 -1.901709,4.018698 -1.255845,1.758179 -3.229316,2.798746 -1.937589,1.00468 -4.592804,1.00468 z m 0.430576,-4.305765 q 1.471132,0 2.475809,-1.184071 1.040557,-1.184087 1.578776,-3.049921 0.538219,-1.901702 0.538219,-4.018698 0,-1.471133 -0.574101,-2.439928 -0.538219,-1.004676 -1.937589,-1.004676 -1.184082,0 -2.081114,0.825269 -0.897032,0.789386 -1.471133,2.081111 -0.574101,1.291725 -0.861152,2.762858 -0.28705,1.471133 -0.28705,2.798743 0,3.229313 2.619335,3.229313 z m 17.87666,4.305765 q -2.511691,0 -3.767536,-1.50702 -1.219965,-1.542889 -1.219965,-4.126355 0,-0.645863 0.107639,-1.650525 0.107638,-1.040564 0.322931,-2.081127 L 72.667489,81.91475 h 5.274548 l -2.404046,11.446128 q -0.287051,1.25584 -0.287051,2.081111 0,2.15288 1.901709,2.15288 1.219964,0 2.152878,-1.004678 0.968793,-1.040548 1.686419,-2.762858 0.717626,-1.722295 1.148202,-3.803406 l 1.722301,-8.109177 h 5.274555 l -4.162222,19.59118 h -4.018716 l 0.358813,-3.624014 h -0.179406 q -1.112321,1.758195 -2.619335,2.870514 -1.471133,1.11232 -3.516366,1.11232 z m 21.321285,0 q -1.399363,0 -2.691089,-0.68175 -1.25584,-0.71762 -2.045241,-2.260521 -0.789386,-1.578771 -0.789386,-4.198106 0,-2.368173 0.645862,-4.700446 0.645863,-2.368173 1.829949,-4.269881 1.184087,-1.901707 2.834628,-3.049909 1.686409,-1.1482 3.767536,-1.1482 1.758177,0 2.762857,0.825269 1.00468,0.825269 1.68641,2.045234 h 0.1435 q 0,-0.107639 0.0359,-0.753508 0.0718,-0.681744 0.17941,-1.542896 0.10759,-0.897032 0.25118,-1.614658 l 1.32761,-6.279225 h 5.27453 l -5.77687,27.269777 h -4.01872 l 0.32293,-2.547566 h -0.1435 q -1.04055,1.291726 -2.368157,2.116996 -1.327607,0.78939 -3.229327,0.78939 z m 2.224649,-4.269881 q 1.25584,0 2.116987,-0.932909 0.89703,-0.968793 1.43525,-2.368173 0.57411,-1.435248 0.82527,-2.870496 0.28705,-1.471133 0.28705,-2.511697 0,-1.399363 -0.64586,-2.224634 -0.64587,-0.86115 -1.79407,-0.86115 -0.968787,0 -1.829947,0.789387 -0.825267,0.753507 -1.471127,2.009351 -0.609978,1.25584 -0.968794,2.798743 -0.3588,1.542886 -0.3588,3.085789 0,3.085789 2.404041,3.085789 z"
       id="path3" />
  </g>
</svg>
